<?xml version="1.0" standalone="no"?>
<!DOCTYPE svg PUBLIC "-//W3C//DTD SVG 20010904//EN"
 "http://www.w3.org/TR/2001/REC-SVG-20010904/DTD/svg10.dtd">
<svg version="1.0" xmlns="http://www.w3.org/2000/svg"
 width="178.000000pt" height="178.000000pt" viewBox="0 0 178.000000 178.000000"
 preserveAspectRatio="xMidYMid meet">
<metadata>
Created by potrace 1.14, written by Peter Selinger 2001-2017
</metadata>
<g transform="translate(0.000000,178.000000) scale(0.100000,-0.100000)"
fill="#000000" stroke="none">
<path d="M803 1725 c-163 -42 -317 -129 -435 -246 -65 -66 -80 -93 -94 -179
-3 -14 -7 -32 -10 -40 -16 -46 -23 -290 -10 -391 23 -185 85 -370 174 -524 57
-96 185 -228 262 -269 48 -26 64 -29 164 -32 115 -4 254 18 312 49 27 14 27
14 -24 19 -203 20 -387 260 -446 583 -32 171 -24 415 18 617 24 113 117 332
173 406 13 17 20 32 16 32 -4 -1 -49 -12 -100 -25z"/>
<path d="M828 1528 c-30 -30 -116 -342 -99 -360 3 -4 24 -10 46 -13 82 -13 96
-16 143 -31 177 -59 330 -225 377 -409 46 -177 -11 -394 -137 -523 -45 -47
-40 -52 59 -48 94 4 146 29 229 114 362 368 256 969 -211 1205 -133 66 -368
104 -407 65z"/>
<path d="M174 1094 c-92 -199 -90 -434 7 -639 78 -167 249 -321 421 -380 l43
-15 -35 27 c-138 105 -259 289 -328 498 -50 153 -66 253 -66 427 -1 87 -2 158
-4 158 -2 0 -19 -34 -38 -76z"/>
</g>
</svg>
